<?xml version="1.0" encoding="iso-8859-1"?>
<!-- Generator: Adobe Illustrator 19.0.0, SVG Export Plug-In . SVG Version: 6.00 Build 0)  -->
<svg version="1.1" id="Layer_1" xmlns="http://www.w3.org/2000/svg" xmlns:xlink="http://www.w3.org/1999/xlink" x="0px" y="0px"
	 viewBox="0 0 512 512" style="enable-background:new 0 0 512 512;" xml:space="preserve">
<path style="fill:#FF6647;" d="M260.349,8.132c27.675,88.562-4.542,163.028-49.559,225.648
	c-16.44-30.503-28.711-64.211-28.711-95.198c-16.284,14.979-113.057,78.271-113.057,191.328c0,96.062,86.57,173.934,182.631,173.934
	c130.451,0,191.328-77.873,191.328-173.934C442.98,121.189,290.17,30.954,260.349,8.132z"/>
<path style="fill:#E35336;" d="M112.504,329.911c0-73.385,40.77-125.794,73.838-157.641c-2.719-11.395-4.265-22.713-4.265-33.687
	c-16.284,14.979-113.057,78.271-113.057,191.328c0,96.062,86.57,173.934,182.631,173.934c8.549,0,16.791-0.342,24.744-0.995
	C188.102,493.552,112.504,419.678,112.504,329.911z"/>
<path d="M392.056,125.422c-2.467-3.767-7.52-4.822-11.287-2.355c-3.768,2.467-4.822,7.519-2.355,11.287
	c37.433,57.169,56.412,122.963,56.412,195.557c0,103.806-68.476,165.781-183.175,165.781c-94.577,0-174.478-75.919-174.478-165.781
	c0-92.132,67.612-150.469,97.753-174.888c2.98,25.057,12.592,52.766,28.685,82.626c2.807,5.208,10.34,5.696,13.797,0.89
	c26.527-36.902,43.959-71.482,53.286-105.712c9.47-34.755,10.545-69.93,3.241-104.86c20.027,14.503,50.353,37.981,79.186,72.369
	c2.892,3.45,8.036,3.902,11.485,1.01c3.452-2.893,3.903-8.036,1.01-11.485c-34.799-41.504-71.374-67.506-91.024-81.475
	c-3.748-2.666-6.988-4.967-9.289-6.728c-2.882-2.207-6.997-2.212-9.887-0.017c-2.706,2.055-3.864,5.682-2.849,8.924
	c21.383,68.429,8.464,134.636-40.709,207.431c-14.182-29.184-21.627-56.431-21.627-79.413c0-4.614-4.097-8.28-8.652-8.09
	c-2.425,0.101-4.124,1.324-5.882,2.86c-2.334,2.039-4.776,3.958-7.191,5.901c-29.438,23.687-107.638,86.604-107.638,190.658
	c0,48.241,20.554,94.033,57.876,128.944C154.85,492.63,203.293,512,251.652,512c63.413,0,115.401-18.44,150.344-53.328
	c32.146-32.095,49.138-76.619,49.138-128.759C451.133,254.09,431.257,185.291,392.056,125.422z"/>
<g>
</g>
<g>
</g>
<g>
</g>
<g>
</g>
<g>
</g>
<g>
</g>
<g>
</g>
<g>
</g>
<g>
</g>
<g>
</g>
<g>
</g>
<g>
</g>
<g>
</g>
<g>
</g>
<g>
</g>
</svg>
